<?xml version="1.0" encoding="UTF-8" standalone="no"?>
<!-- Generated by IcoMoon.io -->

<svg
   xmlns:dc="http://purl.org/dc/elements/1.1/"
   xmlns:cc="http://creativecommons.org/ns#"
   xmlns:rdf="http://www.w3.org/1999/02/22-rdf-syntax-ns#"
   xmlns:svg="http://www.w3.org/2000/svg"
   xmlns="http://www.w3.org/2000/svg"
   xmlns:sodipodi="http://sodipodi.sourceforge.net/DTD/sodipodi-0.dtd"
   xmlns:inkscape="http://www.inkscape.org/namespaces/inkscape"
   version="1.1"
   width="40"
   height="40"
   viewBox="0 0 40 40"
   id="svg2"
   inkscape:version="0.91 r13725"
   sodipodi:docname="cog.svg">
  <metadata
     id="metadata10">
    <rdf:RDF>
      <cc:Work
         rdf:about="">
        <dc:format>image/svg+xml</dc:format>
        <dc:type
           rdf:resource="http://purl.org/dc/dcmitype/StillImage" />
      </cc:Work>
    </rdf:RDF>
  </metadata>
  <defs
     id="defs8" />
  <sodipodi:namedview
     pagecolor="#ffffff"
     bordercolor="#666666"
     borderopacity="1"
     objecttolerance="10"
     gridtolerance="10"
     guidetolerance="10"
     inkscape:pageopacity="0"
     inkscape:pageshadow="2"
     inkscape:window-width="1600"
     inkscape:window-height="838"
     id="namedview6"
     showgrid="false"
     inkscape:zoom="16.68772"
     inkscape:cx="13.678085"
     inkscape:cy="9.6592744"
     inkscape:window-x="1912"
     inkscape:window-y="172"
     inkscape:window-maximized="1"
     inkscape:current-layer="svg2" />
  <path
     d="m 37.005902,23.918559 c -2.162726,-3.647322 -0.861741,-8.32061 2.904674,-10.445288 L 35.85949,6.6414407 c -1.156717,0.660983 -2.502785,1.0397627 -3.93902,1.0397627 -4.329317,0 -7.83811,-3.4391187 -7.83811,-7.6822034 l -8.100884,0 C 15.991784,1.3084237 15.656874,2.636661 14.936824,3.8495085 12.774098,7.4968305 7.9668949,8.7372712 4.1953276,6.6226271 L 0.14552988,13.454458 c 1.16573382,0.645932 2.17560692,1.590373 2.89308072,2.801966 2.1588616,3.641051 0.8656056,8.306813 -2.88664021,10.434 l 4.05108591,6.83183 C 5.355909,32.867542 6.6955367,32.49378 8.1240436,32.49378 c 4.3151464,0 7.8149244,3.417796 7.8368224,7.640813 l 8.100883,0 c -0.0038,-1.296881 0.33362,-2.608813 1.044653,-3.810373 2.158861,-3.641051 6.954471,-4.884 10.723462,-2.783152 l 4.051085,-6.831831 c -1.158004,-0.645932 -2.161437,-1.587864 -2.875047,-2.791932 z m -16.978493,4.275695 c -4.608835,0 -8.345623,-3.638542 -8.345623,-8.126203 0,-4.487661 3.736788,-8.126204 8.345623,-8.126204 4.608834,0 8.345624,3.638543 8.345624,8.126204 0,4.487661 -3.73679,8.126203 -8.345624,8.126203 z"
     id="path4"
     style="fill:#000"
     inkscape:connector-curvature="0" />
</svg>
