<?xml version="1.0" encoding="utf-8"?>
<!-- Generator: Adobe Illustrator 16.0.0, SVG Export Plug-In . SVG Version: 6.00 Build 0)  -->
<!DOCTYPE svg PUBLIC "-//W3C//DTD SVG 1.1//EN" "http://www.w3.org/Graphics/SVG/1.1/DTD/svg11.dtd">
<svg version="1.1" id="Layer_1" xmlns="http://www.w3.org/2000/svg" xmlns:xlink="http://www.w3.org/1999/xlink" x="0px" y="0px"
	 width="200px" height="137.993px" viewBox="-7.698 -6.899 200 137.993" enable-background="new -7.698 -6.899 200 137.993"
	 xml:space="preserve">
<g>
	<g>
		<g>
			<path fill="#373B5C" stroke="#262A42" stroke-miterlimit="10" d="M24.317,24.586c1.99-1.185,4.638-0.445,5.884,1.646
				L44.49,50.209c1.246,2.092,3.893,2.833,5.883,1.646l30.578-18.222c1.99-1.186,2.599-3.867,1.352-5.958L68.014,3.698
				c-1.246-2.092-0.638-4.772,1.352-5.958l15.664-9.334c1.99-1.186,4.637-0.444,5.883,1.646l44.443,74.581
				c1.246,2.091,0.639,4.772-1.352,5.958l-15.664,9.336c-1.99,1.184-4.637,0.443-5.882-1.647L96.5,51.498
				c-1.247-2.092-3.894-2.833-5.884-1.647L60.037,68.073c-1.99,1.187-2.598,3.867-1.352,5.958l15.96,26.781
				c1.246,2.091,0.637,4.772-1.352,5.959l-15.815,9.424c-1.99,1.186-4.637,0.445-5.883-1.646L7.151,39.969
				c-1.247-2.091-0.638-4.773,1.352-5.958L24.317,24.586z"/>
		</g>
	</g>
	<g>
		<path fill="#373B5C" stroke="#262A42" stroke-miterlimit="10" d="M-3.491,61.879c2.036,3.636,6.657,10.995,10.195,16.69
			c-2.334,1.623-4.376,3.242-5.094,4.358c-1.241,1.928-0.968,6.528,0.715,8.721c1.829,3.702,4.958,4.747,7.246,4.574
			c1.326-0.103,3.751-1.182,6.276-2.497c3.661,6.394,8.571,15.221,11.109,19.25c8.488,5.112,15.961,1.607,15.961,1.607
			L22.194,79.808L2.992,47.587C2.991,47.588-3.577,52.604-3.491,61.879z"/>
		<path fill="#373B5C" stroke="#262A42" stroke-miterlimit="10" d="M131.699,9.788c-1.276,0.097-3.642,1.06-6.158,2.256
			c-3.805-6.439-9.105-14.857-11.585-18.797c-8.489-5.111-16.907-1.709-16.907-1.709l21.308,35.757l18.615,31.237
			c0,0,7.517-4.913,7.434-14.19c-2.093-3.735-6.527-11.403-9.937-17.064c2.326-1.515,4.413-3.07,5.108-4.148
			c1.24-1.926,1.6-6.238-0.085-8.43C137.663,10.998,133.982,9.614,131.699,9.788z"/>
	</g>
</g>
<g>
	<g>
		<g>
			<path fill="#333333" stroke="#212121" stroke-miterlimit="10" d="M68.105,38.424c1.989-1.185,4.637-0.445,5.883,1.646
				l14.289,23.978c1.246,2.092,3.893,2.833,5.883,1.646l30.578-18.222c1.989-1.185,2.598-3.866,1.352-5.958l-14.288-23.978
				c-1.248-2.091-0.639-4.772,1.352-5.958l15.664-9.334c1.991-1.186,4.638-0.445,5.884,1.646l44.443,74.582
				c1.245,2.09,0.639,4.771-1.351,5.957l-15.665,9.335c-1.99,1.186-4.638,0.443-5.883-1.646l-15.96-26.785
				c-1.245-2.089-3.895-2.831-5.884-1.646l-30.579,18.224c-1.988,1.185-2.598,3.866-1.351,5.958l15.96,26.781
				c1.245,2.091,0.637,4.771-1.353,5.958l-15.814,9.424c-1.99,1.187-4.638,0.445-5.884-1.646L50.938,53.806
				c-1.246-2.091-0.638-4.773,1.352-5.958L68.105,38.424z"/>
		</g>
	</g>
	<g>
		<path fill="#333333" stroke="#212121" stroke-miterlimit="10" d="M40.295,75.716c2.038,3.637,6.658,10.995,10.196,16.693
			c-2.334,1.621-4.376,3.239-5.095,4.355c-1.24,1.93-0.968,6.529,0.715,8.721c1.83,3.704,4.958,4.749,7.246,4.575
			c1.327-0.102,3.751-1.183,6.277-2.498c3.66,6.395,8.571,15.222,11.108,19.25c8.487,5.112,15.961,1.607,15.961,1.607L65.981,93.647
			L46.78,61.425C46.779,61.426,40.21,66.443,40.295,75.716z"/>
		<path fill="#333333" stroke="#212121" stroke-miterlimit="10" d="M175.485,23.626c-1.276,0.098-3.641,1.06-6.158,2.257
			c-3.805-6.44-9.105-14.857-11.585-18.796c-8.487-5.112-16.907-1.711-16.907-1.711l21.309,35.757l18.614,31.237
			c0,0,7.517-4.914,7.433-14.189c-2.092-3.735-6.526-11.404-9.936-17.065c2.328-1.515,4.415-3.07,5.107-4.147
			c1.241-1.927,1.601-6.239-0.083-8.43C181.449,24.837,177.769,23.452,175.485,23.626z"/>
	</g>
</g>
</svg>
