<?xml version="1.0" encoding="utf-8"?>
<!-- Generator: Adobe Illustrator 16.0.0, SVG Export Plug-In . SVG Version: 6.00 Build 0)  -->
<!DOCTYPE svg PUBLIC "-//W3C//DTD SVG 1.1//EN" "http://www.w3.org/Graphics/SVG/1.1/DTD/svg11.dtd">
<svg version="1.1" id="Layer_1" xmlns="http://www.w3.org/2000/svg" xmlns:xlink="http://www.w3.org/1999/xlink" x="0px" y="0px"
	 width="48px" height="48px" viewBox="0 0 48 48" enable-background="new 0 0 48 48" xml:space="preserve">
<path fill="none" d="M0,0h48v48H0V0z"/>
<g>
	<g>
		<path d="M40.771,36.065l-8.142-8.142c-1.215,1.886-2.82,3.49-4.708,4.703l8.145,8.144c1.299,1.301,3.407,1.301,4.705,0
			C42.071,39.474,42.071,37.366,40.771,36.065z"/>
		<path d="M32.874,19.563c0-7.35-5.961-13.31-13.311-13.31c-7.351,0-13.31,5.959-13.31,13.31c0,7.349,5.959,13.309,13.31,13.309
			C26.913,32.872,32.874,26.912,32.874,19.563z M19.563,29.545c-5.504,0-9.982-4.478-9.982-9.982s4.479-9.981,9.982-9.981
			c5.506,0,9.982,4.477,9.982,9.981S25.069,29.545,19.563,29.545z"/>
		<path d="M11.8,19.563h2.218c0-3.058,2.488-5.546,5.546-5.546v-2.218C15.283,11.799,11.8,15.283,11.8,19.563z"/>
	</g>
</g>
</svg>
