<?xml version="1.0" encoding="utf-8"?>
<!-- Generator: Adobe Illustrator 16.0.0, SVG Export Plug-In . SVG Version: 6.00 Build 0)  -->
<!DOCTYPE svg PUBLIC "-//W3C//DTD SVG 1.1//EN" "http://www.w3.org/Graphics/SVG/1.1/DTD/svg11.dtd">
<svg version="1.1" id="Layer_1" xmlns="http://www.w3.org/2000/svg" xmlns:xlink="http://www.w3.org/1999/xlink" x="0px" y="0px"
	 width="48px" height="48px" viewBox="0 0 48 48" enable-background="new 0 0 48 48" xml:space="preserve">
<path fill="none" d="M0,0h48v48H0V0z"/>
<path d="M24,6C14.06,6,6,14.06,6,24H0l8,8l8-8h-6c0-7.74,6.26-14,14-14s14,6.26,14,14c0,7.74-6.26,14-14,14
	c-3.02,0-5.82-0.98-8.12-2.6l-2.84,2.879C16.08,40.6,19.88,42,24,42c9.939,0,18-8.061,18-18C42,14.06,33.939,6,24,6z"/>
</svg>
