<?xml version="1.0" encoding="iso-8859-1"?>
<!-- Generator: Adobe Illustrator 18.1.1, SVG Export Plug-In . SVG Version: 6.00 Build 0)  -->
<svg xmlns="http://www.w3.org/2000/svg" xmlns:xlink="http://www.w3.org/1999/xlink" version="1.1" id="Capa_1" x="0px" y="0px" viewBox="0 0 55.654 55.654" style="enable-background:new 0 0 55.654 55.654;" xml:space="preserve" width="512px" height="512px">
<g>
	<g>
		<path d="M35.056,30.667c-2.5-0.319-5.081-0.641-7.661-0.785v-4.938c-1.894-0.687-4.606-2.537-8.619-7.308    c-1.175-1.398-0.754-3.325,0.937-4.297c0.627-0.361,1.364-0.553,2.126-0.553c2.176,0.172,4.816,4.026,5.557,4.765v-1.56    c0-2.66-2.313-4.992-5.825-5.054c-3.218,0-5.826,2.157-5.826,4.817v14.688c0,0.229,0.026,0.448,0.063,0.668    c-1.042,6.985-2.084,13.974-3.127,20.961c-0.537,3.594,4.954,5.14,5.494,1.516c0.889-5.953,1.777-11.904,2.666-17.857    c3.161-0.392,6.441-0.229,9.672,0.102c-1.416,2.548-2.831,5.097-4.247,7.646c-1.787,3.215,3.136,6.088,4.921,2.875    c2.11-3.799,4.221-7.598,6.332-11.396C38.663,32.89,37.153,30.935,35.056,30.667z" fill="#FFFFFF"/>
		<path d="M23.35,14.26c-0.838-1.007-2.337-1.144-3.343-0.303c-1.008,0.839-1.143,2.337-0.304,3.344    c5.093,6.107,7.59,6.746,8.876,6.632c0.271-0.023,0.488-0.081,0.664-0.127c1.832-0.484,2.681-1.201,5.461-6.148l-4.141-2.325    c-1.326,2.361-1.498,2.731-2.402,3.652C27.32,18.461,25.614,16.975,23.35,14.26z" fill="#FFFFFF"/>
		<path d="M34.807,18.87l-2.663,4.191c0.229,0.146,0.438,0.231,0.605,0.301    c1.752,0.725,2.861,0.668,8.068-1.586l-1.888-4.358C36.444,18.493,36.085,18.685,34.807,18.87z" fill="#FFFFFF"/>
		<path d="M35.103,17.145l1.096-1.908c-0.03-0.004-0.058-0.01-0.088-0.015    c0.946-0.217,1.806-0.81,2.326-1.717c0.995-1.731,0.399-3.939-1.332-4.934c-1.729-0.995-3.938-0.399-4.934,1.333    c-0.574,0.997-0.615,2.153-0.219,3.144l-0.987,1.719L35.103,17.145z" fill="#FFFFFF"/>
		<path d="M48.152,15.684c-0.819-1.819-2.961-2.629-4.778-1.809c-1.05,0.472-1.761,1.385-2.019,2.421    l-1.808,0.814l1.959,4.35l2.005-0.904c-0.021-0.021-0.04-0.042-0.062-0.063c0.896,0.378,1.938,0.401,2.893-0.03    C48.161,19.643,48.972,17.504,48.152,15.684z" fill="#FFFFFF"/>
		<path d="M21.556,10.086c2.784,0,5.042-2.258,5.042-5.043c0-0.156-0.008-0.309-0.022-0.462H16.534    c-0.012,0.153-0.022,0.306-0.022,0.462C16.512,7.828,18.771,10.086,21.556,10.086z" fill="#FFFFFF"/>
		<path d="M21.556,0c-2.076,0-3.857,1.255-4.632,3.046h9.262C25.413,1.255,23.631,0,21.556,0z" fill="#FFFFFF"/>
		<path d="M16.022,5.18l-0.049-0.128l0.335-0.471h0.226c0.05-0.54,0.184-1.056,0.39-1.535h-1.567    l-0.066-0.045l-0.032,0.045h-0.265v0.372L14.71,3.817L7.183,5.683L7.812,7.31l7.034-2.72l-3.916,5.495l1.422,1.012l3.476-5.842    L16.022,5.18z" fill="#FFFFFF"/>
	</g>
</g>
<g>
</g>
<g>
</g>
<g>
</g>
<g>
</g>
<g>
</g>
<g>
</g>
<g>
</g>
<g>
</g>
<g>
</g>
<g>
</g>
<g>
</g>
<g>
</g>
<g>
</g>
<g>
</g>
<g>
</g>
</svg>
